<svg width="31" height="25" viewBox="0 0 31 25" fill="none" xmlns="http://www.w3.org/2000/svg">
<path fill-rule="evenodd" clip-rule="evenodd" d="M0 1.5C0 0.671573 0.671573 0 1.5 0H29.5C30.3284 0 31 0.671573 31 1.5C31 2.32843 30.3284 3 29.5 3H1.5C0.671573 3 0 2.32843 0 1.5ZM0 12.5C0 11.6716 0.671573 11 1.5 11H29.5C30.3284 11 31 11.6716 31 12.5C31 13.3284 30.3284 14 29.5 14H1.5C0.671573 14 0 13.3284 0 12.5ZM1.5 22C0.671573 22 0 22.6716 0 23.5C0 24.3284 0.671573 25 1.5 25H29.5C30.3284 25 31 24.3284 31 23.5C31 22.6716 30.3284 22 29.5 22H1.5Z" fill="#173A56"/>
</svg>
